<?xml version="1.0" standalone="no"?>
<svg viewBox="0 0 200 200" xmlns="http://www.w3.org/2000/svg">
  <path fill="#925C3E" d="M40.6,-51.7C54.6,-45.6,69.3,-36.5,74.2,-23.6C79.1,-10.7,74.2,5.9,66.9,19.6C59.5,33.3,49.7,44.1,38.1,54.3C26.6,64.5,13.3,74.1,-1.6,76.3C-16.5,78.5,-32.9,73.2,-45.8,63.5C-58.6,53.7,-67.9,39.4,-74,23.4C-80,7.4,-83,-10.3,-75.5,-21.9C-68.1,-33.6,-50.4,-39.2,-36,-45.2C-21.7,-51.1,-10.9,-57.4,1.2,-59.1C13.3,-60.7,26.6,-57.8,40.6,-51.7Z" transform="translate(100 100)" />
</svg>
